<svg xmlns="http://www.w3.org/2000/svg" xmlns:xlink="http://www.w3.org/1999/xlink" preserveAspectRatio="xMidYMid meet" version="1.0" viewBox="-1.9 -1.8 423.3 501.8" zoomAndPan="magnify" style="fill: rgb(0, 0, 0);" original_string_length="4196"><g id="__id201_slednbubv"><path d="M395.7,211c-11-14.6-26.7-27.3-45.7-37.1c12.2-2.6,27.4-8.1,38.3-19.7c23.2-24.6,18.2-66.2,18-68 c0-0.1-0.1-0.2-0.2-0.4c0-0.1,0-0.2-0.1-0.3c0,0-0.1,0-0.1-0.1c-0.2-0.2-0.3-0.3-0.6-0.4c-0.1-0.1-0.2-0.1-0.4-0.2c0,0-0.1,0-0.1,0 c-1.8-0.1-43.5-2.5-66.7,22.2c-15.3,16.3-18.2,40.2-18.5,54.3c-6.2-2-12.6-3.7-19.2-5.1c9.3-35.8-11.9-74.2-12.2-74.7 c-0.3-0.5-0.8-0.8-1.3-0.8c-0.6,0-1,0.2-1.3,0.7c-6.5,9.9-15.8,18.6-28.3,26.6c-10.7-20.4-36.7-34.9-67.1-34.9 c-3.8,0-7.5,0.3-11.2,0.7c3.6-29.3-19.9-57-36.1-67.8c-8.9-6-16.7-7.8-21.2-5c-2.4,1.5-5,5-3.9,13.2c4.3,32.4,33.8,57.2,42.5,63.9 C135.5,87,118,106.4,118,128.8c0,10.4,3.8,20.2,10.4,28.5c-21.6,7.9-43.3,17.9-56.9,33.1C40.8,197.8,6,224.7,0.7,257 c-2.6,15.5,1,37.8,30.1,59.4L37,449.6c0,28.2,74.5,50.4,169.6,50.4c95.1,0,169.6-22.1,169.6-50.3l3.6-68c0,0,0,0,0,0c0,0,0,0,0-0.1 v-35.8c2.1,2.3,5.2,3.8,8.7,3.8c6.5,0,11.7-5.3,11.7-11.7v-34.5C421.4,275,414.1,235.4,395.7,211z M386.1,152.1 c-11.6,12.3-28.3,17.4-40.6,19.5c-2.3-1.1-4.6-2.2-7-3.2c17.7-42.9,55.6-72.4,65-79.2C404.2,98.6,405.1,131.9,386.1,152.1z M340.5,109.1c17.8-19,48.2-21.1,59.7-21.3c-11.6,8.7-47.3,37.7-64.5,79.3c-4.2-1.7-8.5-3.3-12.9-4.8 C322.9,148.8,325.6,125,340.5,109.1z M121,14c-0.5-3.6-0.4-8.3,2.5-10.1c3.4-2.1,10.1-0.3,17.8,4.9c16.8,11.2,38.4,38.8,34.7,65.6 c-4.1,0.6-8.1,1.6-11.9,2.7C159.5,73.7,125.5,47.6,121,14z M121.1,128.8c0-28.9,31.1-52.4,69.3-52.4c38.2,0,69.3,23.5,69.3,52.4 c0,28.9-31.1,52.4-69.3,52.4C152.1,181.2,121.1,157.7,121.1,128.8z M373,449.6c0,25.6-76.2,47.3-166.5,47.3 c-90.2,0-166.5-21.7-166.5-47.4L34,318.7c1.7,1.2,3.5,2.4,5.4,3.6c21.3,13.4,47.5,19.8,70.3,24.2c22.2,4.4,44.9,7.5,67.5,9.2v28.5 c0,6.7,5.4,12.1,12.1,12.1c3.6,0,6.8-1.6,9-4v19.3c0,9.7,7.9,17.7,17.7,17.7c9.7,0,17.7-7.9,17.7-17.7v-10.4 c3.6,5.9,10.1,9.8,17.5,9.8c7.4,0,13.9-3.9,17.5-9.8v39.3c0,9,7.3,16.4,16.4,16.4c9,0,16.4-7.3,16.4-16.4v-14 c3.2,4.7,8.5,7.7,14.6,7.7c9.7,0,17.7-7.9,17.7-17.7v-23c4.2,7.6,12.3,12.7,21.5,12.7c8.8,0,16.5-4.7,20.8-11.6L373,449.6z M397.3,302.1c-0.2,0.3-0.3,0.6-0.3,0.9v35c0,4.8-3.9,8.7-8.7,8.7c-4.8,0-8.7-3.9-8.7-8.7c0-0.8-0.7-1.5-1.5-1.5 c-0.9,0-1.5,0.7-1.5,1.5v43.6l0,0.1c0,11.8-9.7,21.5-21.5,21.5c-11.9,0-21.5-9.6-21.5-21.5c0-0.8-0.7-1.5-1.5-1.5 c-0.9,0-1.5,0.7-1.5,1.5v34.9c0,8-6.5,14.6-14.6,14.6c-8,0-14.6-6.5-14.6-14.6c0-0.8-0.7-1.5-1.5-1.5c-0.9,0-1.5,0.7-1.5,1.5v23.9 c0,7.3-6,13.3-13.3,13.3c-7.3,0-13.3-6-13.3-13.3v-50.1c0-0.8-0.7-1.5-1.5-1.5c-0.9,0-1.5,0.7-1.5,1.5c0,9.7-7.9,17.5-17.5,17.5 c-9.7,0-17.5-7.9-17.5-17.5c0-0.8-0.7-1.5-1.5-1.5c-0.9,0-1.5,0.7-1.5,1.5v21.3c0,8-6.5,14.6-14.6,14.6c-8,0-14.6-6.5-14.6-14.6 v-27.3c0-0.8-0.7-1.5-1.5-1.5c-0.9,0-1.5,0.7-1.5,1.5c0,5-4,9-9,9c-5,0-9-4-9-9v-30c0-0.8-0.6-1.5-1.4-1.5 c-22.9-1.7-46-4.8-68.5-9.3c-22.5-4.4-48.4-10.7-69.3-23.8C12.8,302-0.1,280.5,3.7,257.5c4.9-29.6,35.7-54.5,64.4-63 c-6.1,8.1-9.9,17.7-10.3,29c-0.4,10.5,3.4,19.6,11.3,27.1c22.4,21.2,74.9,27.2,126.8,27.2c30.8,0,61.4-2.1,85.2-4.4 c0.8-0.1,1.5-0.8,1.4-1.7c-0.1-0.9-0.9-1.5-1.7-1.4c-63.3,6-174.7,11-209.6-22c-7.3-6.9-10.8-15.2-10.4-24.8 c1.4-34.1,34.1-50.9,69.6-63.8c13,14.7,35,24.4,59.9,24.4c39.9,0,72.3-24.9,72.3-55.5c0-6.2-1.4-12.2-3.9-17.8 c12.1-7.7,21.4-16.1,28.1-25.6c5.1,10.3,24.4,53.7,3.7,86.9c-19.7,31.6-68.9,45.5-146.2,41.1c-0.8,0.1-1.6,0.6-1.6,1.5 c0,0.8,0.6,1.6,1.5,1.6c9.2,0.5,18,0.8,26.4,0.8c63.5,0,104.6-14.5,122.6-43.4c2.9-4.7,5.1-9.7,6.6-14.6 c12.8,2.7,24.9,6.5,36.1,11.3c0,0,0,0,0.1,0.1c0,0,0.1,0,0.1,0c24.2,10.2,44.2,24.8,57.2,42.2C411,236.5,418.1,274.7,397.3,302.1z M168,123.5c0-0.8,0.7-1.5,1.5-1.5c16.6,0,30.1-10.1,30.1-22.5c0-0.8,0.7-1.5,1.5-1.5c0.9,0,1.5,0.7,1.5,1.5 c0,14.1-14.9,25.6-33.2,25.6C168.7,125,168,124.4,168,123.5z M320.2,267.5c0.1,0.8-0.5,1.6-1.3,1.7c0,0-3.4,0.5-9.3,1.2 c-0.1,0-0.1,0-0.2,0c-0.8,0-1.4-0.6-1.5-1.4c-0.1-0.8,0.5-1.6,1.3-1.7c5.9-0.7,9.2-1.2,9.2-1.2C319.2,266,320,266.6,320.2,267.5z" style="fill: rgb(255, 255, 255);"/></g></svg>